<svg height="512" viewBox="0 0 512 512.00002" width="512" xmlns="http://www.w3.org/2000/svg" xmlns:xlink="http://www.w3.org/1999/xlink"><linearGradient id="a" gradientUnits="userSpaceOnUse" x1="447.27563" x2="494.32233" y1="249.2876" y2="343.50959"><stop offset="0" stop-opacity=".125"/><stop offset="1" stop-color="#fff" stop-opacity="0"/></linearGradient><g transform="translate(0 -610.51965)"><path d="m256 610.51965a256 256 0 0 0 -256 256h122a134 134 0 0 1 134-134z" fill="#005d57"/><path d="m256 610.51965v122a134 134 0 0 1 134 134h122v-217.59961c0-21.27361-17.12484-38.40039-38.39844-38.40039z" fill="#1eb980"/><path d="m0 866.51965a256 256 0 0 0 256 256.00005v-122.0001a134 134 0 0 1 -134-133.99995z" fill="#007d51"/><path d="m390 866.51965a134 134 0 0 1 -134 133.99995v122.0001a256 256 0 0 0 256-256.00005z" fill="#35eab6"/><path d="m390 256 40.6582 112.79297h54.98047a256 256 0 0 0 26.36133-112.79297z" fill="url(#a)" transform="translate(0 610.51965)"/></g></svg>